<!-- The Orazaka mark of @krizaka/ui (OrazakaLogo), rendered static for the browser tab and the auth pages. -->
<svg width="32" height="32" viewBox="76 76 248 248" fill="none" xmlns="http://www.w3.org/2000/svg"><defs><linearGradient id="ozm-amber" gradientUnits="userSpaceOnUse" x1="90" y1="310" x2="310" y2="90"><stop offset="0%" stop-color="#b45309"></stop><stop offset="100%" stop-color="#f59e0b"></stop></linearGradient><radialGradient id="ozm-glow" cx="50%" cy="50%" r="50%"><stop offset="0%" stop-color="#f59e0b" stop-opacity="0.16"></stop><stop offset="100%" stop-color="#f59e0b" stop-opacity="0"></stop></radialGradient></defs><circle cx="200" cy="200" r="160" stroke="#a8a29e" stroke-width="1.5" stroke-dasharray="8 8" opacity=".6"></circle><circle cx="200" cy="200" r="134" stroke="#a8a29e" stroke-width="1" opacity=".35"></circle><g><path d="M154.4,121.2 L200,94.7 L245.6,121.2 L245.6,154.4 L226.6,165.4 L226.6,132.2 L200,116.8 L173.4,132.2 L173.4,165.4 L154.4,154.4 Z" fill="url(#ozm-amber)" stroke="url(#ozm-amber)" stroke-width="5.7" stroke-linejoin="round"></path><path d="M291.1,199.9 L291.2,252.6 L245.5,278.9 L216.7,262.3 L216.6,240.3 L245.4,257 L272.1,241.6 L272,210.9 L243.2,194.3 L262.3,183.3 Z" fill="url(#ozm-amber)" stroke="url(#ozm-amber)" stroke-width="5.7" stroke-linejoin="round"></path><path d="M154.5,278.9 L108.8,252.6 L108.9,199.9 L137.7,183.3 L156.8,194.3 L128,210.9 L127.9,241.6 L154.6,257 L183.4,240.3 L183.3,262.3 Z" fill="url(#ozm-amber)" stroke="url(#ozm-amber)" stroke-width="5.7" stroke-linejoin="round"></path></g><g><circle cx="200" cy="200" r="21" fill="url(#ozm-amber)"></circle><circle cx="200" cy="200" r="7.6" fill="#fffbeb"></circle></g></svg>
